<mxfile host="app.diagrams.net" agent="Mozilla/5.0 (Windows NT 10.0; Win64; x64) AppleWebKit/537.36 (KHTML, like Gecko) Chrome/139.0.0.0 Safari/537.36" version="28.1.0">
  <diagram name="Page-1" id="74e2e168-ea6b-b213-b513-2b3c1d86103e">
    <mxGraphModel dx="1422" dy="790" grid="1" gridSize="10" guides="1" tooltips="1" connect="1" arrows="1" fold="1" page="1" pageScale="1" pageWidth="1100" pageHeight="850" background="none" math="0" shadow="0">
      <root>
        <mxCell id="0" />
        <mxCell id="1" parent="0" />
        <mxCell id="VBQmDTmbl87jneT0n2lu-1" value="Start" style="ellipse;whiteSpace=wrap;html=1;" vertex="1" parent="1">
          <mxGeometry x="490" y="130" width="120" height="70" as="geometry" />
        </mxCell>
        <mxCell id="VBQmDTmbl87jneT0n2lu-2" value="" style="endArrow=classic;html=1;rounded=0;exitX=0.5;exitY=1;exitDx=0;exitDy=0;" edge="1" parent="1" source="VBQmDTmbl87jneT0n2lu-1">
          <mxGeometry width="50" height="50" relative="1" as="geometry">
            <mxPoint x="530" y="450" as="sourcePoint" />
            <mxPoint x="550" y="260" as="targetPoint" />
          </mxGeometry>
        </mxCell>
        <mxCell id="VBQmDTmbl87jneT0n2lu-3" value="Take a number input" style="shape=parallelogram;perimeter=parallelogramPerimeter;whiteSpace=wrap;html=1;fixedSize=1;" vertex="1" parent="1">
          <mxGeometry x="455" y="260" width="190" height="60" as="geometry" />
        </mxCell>
        <mxCell id="VBQmDTmbl87jneT0n2lu-4" value="" style="endArrow=classic;html=1;rounded=0;exitX=0.5;exitY=1;exitDx=0;exitDy=0;" edge="1" parent="1" source="VBQmDTmbl87jneT0n2lu-3">
          <mxGeometry width="50" height="50" relative="1" as="geometry">
            <mxPoint x="550" y="340" as="sourcePoint" />
            <mxPoint x="550.0000000000002" y="383.4314575050764" as="targetPoint" />
          </mxGeometry>
        </mxCell>
        <mxCell id="VBQmDTmbl87jneT0n2lu-6" value="" style="endArrow=classic;html=1;rounded=0;exitX=0;exitY=1;exitDx=0;exitDy=0;" edge="1" parent="1">
          <mxGeometry width="50" height="50" relative="1" as="geometry">
            <mxPoint x="493.4314575050761" y="440" as="sourcePoint" />
            <mxPoint x="400" y="440" as="targetPoint" />
          </mxGeometry>
        </mxCell>
        <mxCell id="VBQmDTmbl87jneT0n2lu-17" value="False" style="edgeLabel;html=1;align=center;verticalAlign=middle;resizable=0;points=[];" vertex="1" connectable="0" parent="VBQmDTmbl87jneT0n2lu-6">
          <mxGeometry x="-0.1559" y="-1" relative="1" as="geometry">
            <mxPoint as="offset" />
          </mxGeometry>
        </mxCell>
        <mxCell id="VBQmDTmbl87jneT0n2lu-7" value="Prime number is ODD" style="shape=parallelogram;perimeter=parallelogramPerimeter;whiteSpace=wrap;html=1;fixedSize=1;" vertex="1" parent="1">
          <mxGeometry x="260" y="410" width="150" height="60" as="geometry" />
        </mxCell>
        <mxCell id="VBQmDTmbl87jneT0n2lu-8" value="" style="endArrow=classic;html=1;rounded=0;exitX=0.456;exitY=1.022;exitDx=0;exitDy=0;exitPerimeter=0;" edge="1" parent="1" source="VBQmDTmbl87jneT0n2lu-7">
          <mxGeometry width="50" height="50" relative="1" as="geometry">
            <mxPoint x="330" y="500" as="sourcePoint" />
            <mxPoint x="345" y="530" as="targetPoint" />
          </mxGeometry>
        </mxCell>
        <mxCell id="VBQmDTmbl87jneT0n2lu-9" value="" style="endArrow=classic;html=1;rounded=0;exitX=1;exitY=0;exitDx=0;exitDy=0;" edge="1" parent="1">
          <mxGeometry width="50" height="50" relative="1" as="geometry">
            <mxPoint x="606.5685424949238" y="440" as="sourcePoint" />
            <mxPoint x="680" y="440" as="targetPoint" />
          </mxGeometry>
        </mxCell>
        <mxCell id="VBQmDTmbl87jneT0n2lu-15" value="" style="edgeStyle=orthogonalEdgeStyle;rounded=0;orthogonalLoop=1;jettySize=auto;html=1;" edge="1" parent="1" source="VBQmDTmbl87jneT0n2lu-10" target="VBQmDTmbl87jneT0n2lu-14">
          <mxGeometry relative="1" as="geometry" />
        </mxCell>
        <mxCell id="VBQmDTmbl87jneT0n2lu-16" value="True" style="edgeLabel;html=1;align=center;verticalAlign=middle;resizable=0;points=[];" vertex="1" connectable="0" parent="VBQmDTmbl87jneT0n2lu-15">
          <mxGeometry x="0.151" y="-1" relative="1" as="geometry">
            <mxPoint as="offset" />
          </mxGeometry>
        </mxCell>
        <mxCell id="VBQmDTmbl87jneT0n2lu-10" value="Prime Number is Even" style="shape=parallelogram;perimeter=parallelogramPerimeter;whiteSpace=wrap;html=1;fixedSize=1;" vertex="1" parent="1">
          <mxGeometry x="670" y="410" width="150" height="60" as="geometry" />
        </mxCell>
        <mxCell id="VBQmDTmbl87jneT0n2lu-11" value="" style="endArrow=classic;html=1;rounded=0;exitX=0.448;exitY=1.012;exitDx=0;exitDy=0;exitPerimeter=0;entryX=0.573;entryY=0.007;entryDx=0;entryDy=0;entryPerimeter=0;" edge="1" parent="1" source="VBQmDTmbl87jneT0n2lu-10" target="VBQmDTmbl87jneT0n2lu-13">
          <mxGeometry width="50" height="50" relative="1" as="geometry">
            <mxPoint x="670" y="520" as="sourcePoint" />
            <mxPoint x="724" y="520" as="targetPoint" />
            <Array as="points" />
          </mxGeometry>
        </mxCell>
        <mxCell id="VBQmDTmbl87jneT0n2lu-12" value="End" style="ellipse;whiteSpace=wrap;html=1;" vertex="1" parent="1">
          <mxGeometry x="290" y="530" width="110" height="70" as="geometry" />
        </mxCell>
        <mxCell id="VBQmDTmbl87jneT0n2lu-13" value="End" style="ellipse;whiteSpace=wrap;html=1;" vertex="1" parent="1">
          <mxGeometry x="670" y="520" width="110" height="70" as="geometry" />
        </mxCell>
        <mxCell id="VBQmDTmbl87jneT0n2lu-14" value="Number % 2 =0" style="rhombus;whiteSpace=wrap;html=1;" vertex="1" parent="1">
          <mxGeometry x="490" y="380" width="120" height="120" as="geometry" />
        </mxCell>
      </root>
    </mxGraphModel>
  </diagram>
</mxfile>
